<?xml version="1.0" encoding="UTF-8"?>
<svg width="700pt" height="700pt" version="1.1" viewBox="0 0 700 700" xmlns="http://www.w3.org/2000/svg" xmlns:xlink="http://www.w3.org/1999/xlink">
 <g>
  <path d="m307.23 368.09c11.266 25.758 25.594 50.062 42.676 72.391 17.125-22.324 31.496-46.629 42.809-72.391-28.406-1.3125-57.078-1.3125-85.484 0z"/>
  <path d="m206.56 378.04c23.902 33.895 58.992 58.277 99.098 68.859-16.305-23.641-29.75-49.129-40.059-75.93-19.766 1.7031-39.535 4.0586-59.039 7.0703z"/>
  <path d="m186.53 213.09c-16.23 41.09-16.23 86.812 0 127.9 22.648-3.7969 45.426-6.8086 67.551-9.0312-7.9883-36.219-7.9883-73.746 0-109.96-22.254-2.0938-44.902-5.1055-67.551-8.9023z"/>
  <path d="m294.14 328.95c18.59-1.0469 37.18-1.5703 55.766-1.5703 18.723 0 37.309 0.52344 55.898 1.5703 8.3789-34.141 8.3789-69.801 0-103.94-37.188 2.2266-74.477 2.2266-111.66 0-8.3789 34.141-8.3789 69.801 0 103.94z"/>
  <path d="m513.41 340.99c16.059-41.121 16.059-86.777 0-127.9-22.648 3.7969-45.426 6.8086-67.551 8.9023 7.9883 36.219 7.9883 73.746 0 109.96 22.125 2.2266 44.902 5.2383 67.551 9.0312z"/>
  <path d="m394.16 107.18c16.391 23.609 29.883 49.102 40.188 75.93 19.766-1.7031 39.535-4.1875 59.039-7.0703h0.003907c-23.957-33.902-59.09-58.281-99.23-68.859z"/>
  <path d="m392.71 185.99c-11.281-25.777-25.656-50.086-42.809-72.395-17.109 22.312-31.441 46.621-42.676 72.395 28.406 1.3086 57.078 1.3086 85.484 0z"/>
  <path d="m127.27 184.67c2.7109 1.7031 5.8867 2.5195 9.082 2.3359 3.1992-0.1875 6.2578-1.3672 8.7539-3.375 5.1133-4.3125 7.3789-12.332 9.625-18.363l8.125-21.824h69.184l8.125 21.355c2.9922 7.8555 6.6406 19.527 15.906 21.742v0.003906c4.8516 1.1211 9.957 0.070313 13.973-2.8828 4.0156-2.9492 6.5391-7.5078 6.9141-12.477-0.67578-6.3281-2.4414-12.496-5.2227-18.223l-44.457-109.8c-2.4648-7.6992-5.7891-15.094-9.9102-22.047-6.3438-9.2305-18.582-9.625-29.043-5.8398-12.594 4.5586-16.312 19.82-20.707 30.977-0.03125 0.074219-43.527 107.64-43.527 107.64-4.1719 10.34-8.6719 23.656 3.1797 30.777zm69.832-134.48 25.652 67.367h-50.84z"/>
  <path d="m561.05 428.52c7.3008 0 13.219-5.918 13.219-13.219s-5.918-13.219-13.219-13.219h-88.297l1.5-16.715c0.64844-7.2695-4.7148-13.688-11.984-14.34s-13.691 4.707-14.348 11.977l-1.7148 19.078h-30.145 0.003906c-7.3008 0-13.219 5.918-13.219 13.219s5.918 13.219 13.219 13.219h27.77l-4.1758 46.457c-0.30859 3.4414 0.74219 6.8672 2.9297 9.543 6.4844 7.4141 13.699 14.152 21.539 20.113-16.609 10.398-35.492 16.613-55.027 18.113-7.043 0.63281-12.34 6.6914-12.027 13.754 0.3125 7.0586 6.125 12.625 13.195 12.633 0.39453 0 0.79297-0.019531 1.1953-0.050781h-0.003907c27.727-2 54.281-11.973 76.469-28.715 18.57 10.344 42.586 22.465 71.875 25.234 0.42578 0.039063 0.84375 0.058594 1.2578 0.058594 7.0547-0.007812 12.863-5.5547 13.191-12.602 0.32812-7.0508-4.9336-13.113-11.957-13.777-21.121-1.9961-38.988-10.953-53.672-18.133 17.832-21.027 30.574-45.879 37.246-72.629zm-75.684 58.816v-0.003907c-6.707-4.7539-13.012-10.047-18.852-15.828l3.8633-42.984h48.199c-6.2656 21.953-17.648 42.109-33.211 58.812z"/>
  <path d="m350 23.391c-28.922-0.015625-57.629 4.9336-84.875 14.641l12.234 30.113c54.398-18.969 114.05-15.953 166.26 8.4141 52.207 24.367 92.836 68.152 113.23 122.03 20.398 53.883 18.953 113.6-4.0273 166.43h8.2461c8.4961 0.007813 16.848 2.1758 24.273 6.3008 12.09-29.977 18.289-62.004 18.254-94.328 0-132.2-113.78-253.6-253.6-253.6z"/>
  <path d="m128.83 279.85c-0.023437-17.867 2.1523-35.668 6.4844-53-11.141 0.015626-21.992-3.5586-30.945-10.191-12.871 50.125-10.102 102.98 7.9336 151.49 18.031 48.508 50.469 90.34 92.953 119.89 42.488 29.547 92.996 45.395 144.75 45.414 3.4297 0 6.9492-0.09375 10.379-0.27734 1.0391-9.7891 4.9766-19.047 11.305-26.594 2.3594-2.8555 5.0664-5.4102 8.0586-7.5977-9.8516 1.3828-19.793 2.0664-29.742 2.0391-58.641-0.054688-114.86-23.375-156.33-64.844-41.469-41.465-64.789-97.688-64.844-156.33z"/>
  <use x="70" y="625.625" xlink:href="#x"/>
  <use x="86.054688" y="625.625" xlink:href="#b"/>
  <use x="96.839844" y="625.625" xlink:href="#a"/>
  <use x="111.679687" y="625.625" xlink:href="#e"/>
  <use x="126.4375" y="625.625" xlink:href="#d"/>
  <use x="136.894531" y="625.625" xlink:href="#a"/>
  <use x="151.730469" y="625.625" xlink:href="#k"/>
  <use x="175.007812" y="625.625" xlink:href="#j"/>
  <use x="190.664062" y="625.625" xlink:href="#i"/>
  <use x="212.539062" y="625.625" xlink:href="#h"/>
  <use x="230.699219" y="625.625" xlink:href="#a"/>
  <use x="245.535156" y="625.625" xlink:href="#w"/>
  <use x="253.03125" y="625.625" xlink:href="#v"/>
  <use x="273.242188" y="625.625" xlink:href="#e"/>
  <use x="288.003906" y="625.625" xlink:href="#b"/>
  <use x="306.40625" y="625.625" xlink:href="#u"/>
  <use x="324.714844" y="625.625" xlink:href="#c"/>
  <use x="339.742188" y="625.625" xlink:href="#g"/>
  <use x="352.761719" y="625.625" xlink:href="#g"/>
  <use x="365.78125" y="625.625" xlink:href="#e"/>
  <use x="380.542969" y="625.625" xlink:href="#t"/>
  <use x="388.042969" y="625.625" xlink:href="#f"/>
  <use x="70" y="647.5" xlink:href="#s"/>
  <use x="79.515625" y="647.5" xlink:href="#b"/>
  <use x="90.304688" y="647.5" xlink:href="#c"/>
  <use x="105.332031" y="647.5" xlink:href="#r"/>
  <use x="135.742188" y="647.5" xlink:href="#d"/>
  <use x="146.199219" y="647.5" xlink:href="#q"/>
  <use x="161.773438" y="647.5" xlink:href="#a"/>
  <use x="184.222656" y="647.5" xlink:href="#p"/>
  <use x="202.53125" y="647.5" xlink:href="#c"/>
  <use x="217.558594" y="647.5" xlink:href="#o"/>
  <use x="233.132812" y="647.5" xlink:href="#f"/>
  <use x="256.320312" y="647.5" xlink:href="#n"/>
  <use x="272.355469" y="647.5" xlink:href="#b"/>
  <use x="283.140625" y="647.5" xlink:href="#c"/>
  <use x="298.171875" y="647.5" xlink:href="#m"/>
  <use x="305.667969" y="647.5" xlink:href="#a"/>
  <use x="320.503906" y="647.5" xlink:href="#l"/>
  <use x="333.472656" y="647.5" xlink:href="#d"/>
 </g>
</svg>
